# File created by Blade
# Date/Time:  Thu Jan 22 16:36:26 2015
# Frame Rate: 120.000 fps
#------------------------------------------------------
:FULLY-SPECIFIED
:DEGREES
2522
root -1.155799 6.337408 -7.424898 -17.432500 -24.959495 46.795038
RightUpLeg -99.254916 5.539971 33.113604
RightLeg 141.781622 -0.000000 -0.000000
RightFoot 18.407004 -9.246360 114.057787
RightToeBase -402.070772 -0.000000 0.000000
LeftUpLeg -11.777103 -19.635162 31.905175
LeftLeg 152.982323 -0.000000 -0.000000
LeftFoot 26.324499 17.576746 -23.242869
LeftToeBase 8.782910 -0.000000 -0.000000
Spine 29.269591 8.169800 -1.253479
RightShoulder 1.773760 -25.085230 -39.474373
RightArm -7.749214 -2.298193 81.742475
RightForeArm -6.402249 -0.000000 71.740979
RightHand 31.195284 0.000000 -72.287614
RightHandThumb1 -24.326973 -0.000000 -32.862282
LeftShoulder -34.682332 30.416974 -15.110726
LeftArm 27.007212 -1.290566 -82.163996
LeftForeArm 37.461504 -0.000000 42.392247
LeftHand -28.210189 -0.000000 -19.411955
LeftHandThumb1 -26.253704 0.000000 33.147579
Head -36.650875 17.283487 -35.924747
2523
root -1.156899 6.337659 -7.425069 -17.432735 -24.965689 46.806738
RightUpLeg -99.246159 5.553626 33.124965
RightLeg 141.781758 -0.000000 -0.000000
RightFoot 18.336094 -9.239486 114.196200
RightToeBase -402.062776 -0.000000 0.000000
LeftUpLeg -11.773792 -19.619729 31.894044
LeftLeg 152.975182 -0.000000 -0.000000
LeftFoot 26.312403 17.578891 -23.220395
LeftToeBase 8.778642 -0.000000 -0.000000
Spine 29.256517 8.151168 -1.244239
RightShoulder 1.781025 -25.078831 -39.507530
RightArm -7.757622 -2.305460 81.768863
RightForeArm -6.450129 -0.000000 71.768381
RightHand 31.192766 -0.000000 -72.169207
RightHandThumb1 -24.326973 -0.000000 -32.862282
LeftShoulder -34.659362 30.424895 -15.113890
LeftArm 27.010313 -1.309266 -82.151770
LeftForeArm 37.339633 -0.000000 42.352276
LeftHand -28.183657 -0.000000 -19.433847
LeftHandThumb1 -26.253704 0.000000 33.147579
Head -36.875009 17.289431 -36.034014
2524
root -1.157803 6.337407 -7.426517 -17.426038 -24.968389 46.811628
RightUpLeg -99.243799 5.572002 33.148037
RightLeg 141.779280 -0.000000 -0.000000
RightFoot 18.258873 -9.210344 114.270308
RightToeBase -402.004047 -0.000000 0.000000
LeftUpLeg -11.781046 -19.609888 31.893469
LeftLeg 152.967339 -0.000000 -0.000000
LeftFoot 26.293541 17.603727 -23.249865
LeftToeBase 8.810730 -0.000000 -0.000000
Spine 29.237697 8.120130 -1.235970
RightShoulder 1.801288 -25.119759 -39.544457
RightArm -7.716665 -2.296842 81.784261
RightForeArm -6.468425 -0.000000 71.803248
RightHand 31.187604 -0.000000 -72.165647
RightHandThumb1 -24.326973 -0.000000 -32.862282
LeftShoulder -34.632298 30.403486 -15.097157
LeftArm 26.982126 -1.326476 -82.159082
LeftForeArm 37.341155 -0.000000 42.296195
LeftHand -28.257789 -0.000000 -19.441945
LeftHandThumb1 -26.253704 0.000000 33.147579
Head -37.102698 17.343893 -36.139183
2525
root -1.159777 6.336735 -7.426708 -17.423311 -24.968864 46.813031
RightUpLeg -99.237164 5.567361 33.100932
RightLeg 141.767288 -0.000000 -0.000000
RightFoot 18.350495 -9.294003 114.504569
RightToeBase -402.136979 -0.000000 0.000000
LeftUpLeg -11.775243 -19.615466 31.895183
LeftLeg 152.958356 -0.000000 -0.000000
LeftFoot 26.258665 17.585261 -23.276884
LeftToeBase 8.855392 -0.000000 -0.000000
Spine 29.225754 8.100354 -1.227387
RightShoulder 1.811756 -25.134450 -39.551233
RightArm -7.714343 -2.268992 81.790075
RightForeArm -6.577403 -0.000000 71.848773
RightHand 31.106763 -0.000000 -72.160114
RightHandThumb1 -24.326973 -0.000000 -32.862282
LeftShoulder -34.616874 30.399738 -15.095664
LeftArm 26.981394 -1.342962 -82.160182
LeftForeArm 37.342100 -0.000000 42.244371
LeftHand -28.279928 -0.000000 -19.404974
LeftHandThumb1 -26.253704 0.000000 33.147579
Head -37.308682 17.387571 -36.245431
2526
root -1.159870 6.336365 -7.426879 -17.429550 -24.968969 46.816571
RightUpLeg -99.234256 5.563195 33.081332
RightLeg 141.767196 -0.000000 -0.000000
RightFoot 18.319877 -9.331009 114.649760
RightToeBase -402.090890 -0.000000 0.000000
LeftUpLeg -11.772688 -19.608879 31.889417
LeftLeg 152.952021 -0.000000 -0.000000
LeftFoot 26.279787 17.599414 -23.269828
LeftToeBase 8.819067 -0.000000 -0.000000
Spine 29.221502 8.074980 -1.212957
RightShoulder 1.826487 -25.127128 -39.582236
RightArm -7.728986 -2.258988 81.803305
RightForeArm -6.580152 -0.000000 71.886500
RightHand 31.158796 -0.000000 -72.111691
RightHandThumb1 -24.326973 -0.000000 -32.862282
LeftShoulder -34.612556 30.411677 -15.107607
LeftArm 27.001883 -1.389434 -82.189331
LeftForeArm 37.265162 -0.000000 42.196960
LeftHand -28.249166 -0.000000 -19.506175
LeftHandThumb1 -26.253704 0.000000 33.147579
Head -37.489547 17.349749 -36.294821
2527
root -1.160174 6.335775 -7.427162 -17.435468 -24.962431 46.822187
RightUpLeg -99.235580 5.560676 33.054681
RightLeg 141.764607 -0.000000 -0.000000
RightFoot 18.328007 -9.377593 114.800094
RightToeBase -402.091637 -0.000000 0.000000
LeftUpLeg -11.768382 -19.612436 31.883431
LeftLeg 152.951827 -0.000000 -0.000000
LeftFoot 26.256931 17.589653 -23.299125
LeftToeBase 8.851933 -0.000000 -0.000000
Spine 29.216188 8.046198 -1.201405
RightShoulder 1.852946 -25.142524 -39.624157
RightArm -7.729219 -2.260187 81.817847
RightForeArm -6.586332 0.000000 71.927669
RightHand 31.153865 -0.000000 -72.119462
RightHandThumb1 -24.326973 -0.000000 -32.862282
LeftShoulder -34.605356 30.412983 -15.115149
LeftArm 27.005335 -1.395941 -82.204100
LeftForeArm 37.327190 -0.000000 42.148541
LeftHand -28.215496 -0.000000 -19.425737
LeftHandThumb1 -26.253704 0.000000 33.147579
Head -37.646679 17.321568 -36.323033
2528
root -1.160144 6.335116 -7.427862 -17.438280 -24.964757 46.831684
RightUpLeg -99.232297 5.569409 33.044670
RightLeg 141.764244 -0.000000 -0.000000
RightFoot 18.292077 -9.396043 114.984914
RightToeBase -402.100862 -0.000000 0.000000
LeftUpLeg -11.766580 -19.595526 31.874136
LeftLeg 152.952302 -0.000000 -0.000000
LeftFoot 26.257558 17.574790 -23.280825
LeftToeBase 8.887379 -0.000000 -0.000000
Spine 29.203182 8.031580 -1.192425
RightShoulder 1.869645 -25.147776 -39.653788
RightArm -7.735983 -2.261669 81.830432
RightForeArm -6.593801 0.000000 71.965160
RightHand 31.138005 0.000000 -72.122594
RightHandThumb1 -24.326973 -0.000000 -32.862282
LeftShoulder -34.586781 30.403475 -15.105315
LeftArm 26.989163 -1.415188 -82.225021
LeftForeArm 37.335509 0.000000 42.106654
LeftHand -28.256908 -0.000000 -19.425105
LeftHandThumb1 -26.253704 0.000000 33.147579
Head -37.773948 17.310066 -36.345602
2529
root -1.158667 6.334355 -7.429013 -17.446672 -24.961651 46.845223
RightUpLeg -99.234000 5.573366 33.019507
RightLeg 141.762257 -0.000000 -0.000000
RightFoot 18.276534 -9.425491 115.163901
RightToeBase -402.091342 -0.000000 0.000000
LeftUpLeg -11.766977 -19.581646 31.858452
LeftLeg 152.955930 -0.000000 -0.000000
LeftFoot 26.267992 17.570030 -23.262192
LeftToeBase 8.826503 -0.000000 -0.000000
Spine 29.196555 8.026212 -1.183323
RightShoulder 1.870775 -25.155313 -39.661751
RightArm -7.761528 -2.231285 81.835601
RightForeArm -6.629055 -0.000000 72.029639
RightHand 31.123014 -0.000000 -72.073010
RightHandThumb1 -24.326973 -0.000000 -32.862282
LeftShoulder -34.564973 30.410167 -15.093704
LeftArm 26.986577 -1.417309 -82.243236
LeftForeArm 37.328169 -0.000000 42.077929
LeftHand -28.259341 -0.000000 -19.386157
LeftHandThumb1 -26.253704 0.000000 33.147579
Head -37.886936 17.299479 -36.380917
2530
root -1.157049 6.334853 -7.429961 -17.450702 -24.958131 46.869983
RightUpLeg -99.244248 5.585483 33.012903
RightLeg 141.769591 -0.000000 -0.000000
RightFoot 18.190940 -9.426583 115.306192
RightToeBase -402.041529 -0.000000 0.000000
LeftUpLeg -11.776958 -19.556740 31.829567
LeftLeg 152.963089 -0.000000 -0.000000
LeftFoot 26.267648 17.577549 -23.286867
LeftToeBase 8.834019 -0.000000 -0.000000
Spine 29.180771 8.025669 -1.181052
RightShoulder 1.879464 -25.158629 -39.695129
RightArm -7.769390 -2.232312 81.856178
RightForeArm -6.624568 -0.000000 72.045631
RightHand 31.144194 0.000000 -72.148126
RightHandThumb1 -24.326973 -0.000000 -32.862282
LeftShoulder -34.529824 30.393975 -15.076421
LeftArm 26.956620 -1.427962 -82.243200
LeftForeArm 37.266046 -0.000000 42.061379
LeftHand -28.219545 -0.000000 -19.466789
LeftHandThumb1 -26.253704 0.000000 33.147579
Head -37.979786 17.301005 -36.431394
2531
root -1.156441 6.333949 -7.430522 -17.460603 -24.951001 46.877846
RightUpLeg -99.245547 5.584331 33.004113
RightLeg 141.770898 -0.000000 -0.000000
RightFoot 18.186418 -9.444446 115.409431
RightToeBase -402.006912 -0.000000 0.000000
LeftUpLeg -11.773871 -19.541625 31.816037
LeftLeg 152.969736 -0.000000 -0.000000
LeftFoot 26.264109 17.585870 -23.279418
LeftToeBase 8.859004 -0.000000 -0.000000
Spine 29.174961 8.016323 -1.167045
RightShoulder 1.891106 -25.154942 -39.727075
RightArm -7.795294 -2.246604 81.862342
RightForeArm -6.637184 -0.000000 72.070773
RightHand 31.167808 -0.000000 -72.139859
RightHandThumb1 -24.326973 -0.000000 -32.862282
LeftShoulder -34.544354 30.440174 -15.088388
LeftArm 27.030529 -1.495400 -82.358202
LeftForeArm 37.441177 -0.000000 41.981066
LeftHand -28.197311 -0.000000 -19.529096
LeftHandThumb1 -26.253704 0.000000 33.147579
Head -38.059896 17.280152 -36.441922
2532
root -1.155860 6.333764 -7.432634 -17.453605 -24.952643 46.865112
RightUpLeg -99.219665 5.615082 33.127975
RightLeg 141.767081 -0.000000 -0.000000
RightFoot 17.942285 -9.263488 115.388840
RightToeBase -402.047115 -0.000000 0.000000
LeftUpLeg -11.783677 -19.509752 31.824270
LeftLeg 152.982320 -0.000000 -0.000000
LeftFoot 26.262473 17.627772 -23.279597
LeftToeBase 8.826143 -0.000000 -0.000000
Spine 29.164578 7.985812 -1.123425
RightShoulder 1.910780 -25.116165 -39.788623
RightArm -7.842118 -2.263926 81.884259
RightForeArm -6.640652 -0.000000 72.104441
RightHand 31.181670 -0.000000 -72.116176
RightHandThumb1 -24.326973 -0.000000 -32.862282
LeftShoulder -34.498322 30.396879 -15.065945
LeftArm 26.948138 -1.516847 -82.393068
LeftForeArm 37.523071 -0.000000 41.967671
LeftHand -28.193161 -0.000000 -19.457803
LeftHandThumb1 -26.253704 0.000000 33.147579
Head -38.140190 17.317988 -36.499100
